PathFileType	4	(X/Y/Z)	64_2_103_p1_0-305_filt_butterworth.trc
DataRate	CameraRate	NumFrames	NumMarkers	Units	OrigDataRate	OrigDataStartFrame	OrigNumFrames
51.0	51.0	5	27	m	51.0	0	305
Frame#	Time	RHip			RKnee			RAnkle			RBigToe			RSmallToe			RHeel			LHip			LKnee			LAnkle			LBigToe			LSmallToe			LHeel			Neck			Head			Nose			RShoulder			RElbow			RWrist			RThumb			RIndex			RPinky			LShoulder			LElbow			LWrist			LThumb			LIndex			LPinky			
		X1	Y1	Z1	X2	Y2	Z2	X3	Y3	Z3	X4	Y4	Z4	X5	Y5	Z5	X6	Y6	Z6	X7	Y7	Z7	X8	Y8	Z8	X9	Y9	Z9	X10	Y10	Z10	X11	Y11	Z11	X12	Y12	Z12	X13	Y13	Z13	X14	Y14	Z14	X15	Y15	Z15	X16	Y16	Z16	X17	Y17	Z17	X18	Y18	Z18	X19	Y19	Z19	X20	Y20	Z20	X21	Y21	Z21	X22	Y22	Z22	X23	Y23	Z23	X24	Y24	Z24	X25	Y25	Z25	X26	Y26	Z26	X27	Y27	Z27	
0	0.0	0.3101257932720213	0.7595850446094952	0.5388584869765433	0.2926528550567518	1.0088267237287263	0.9154025908804679	0.2475116799491816	1.2523756168129672	1.2594096320570602	0.28655964822692687	1.1001686909106803	1.4015072091774567	0.33083539461366973	1.1671747991340315	1.3849942457300266	0.1980991262391137	1.332073913804692	1.2840832122046588	0.09651755029062761	0.6835326757046447	0.5686967136801439	0.07214184589920167	0.9462399919483484	0.9332333227087212	0.06301584905930535	1.1750057541291894	1.2726716870204755	0.11581665191472573	1.0134279456797937	1.4124877641193594	0.04302629956535496	1.071164349353302	1.4069919632224133	0.051184406979870214	1.268950190785866	1.288746805749478	0.2615145382727765	0.37268781244156307	0.023629172618685756	0.30131559032013006	0.20615487029989082	-0.16655974752126484	0.2978796599906986	0.23178930171559942	-0.028646705026483338	0.414666501659371	0.5129953463557588	0.08710067757826753	0.4273166232823983	0.661017453721886	0.3457403200096743	0.46799223298869536	0.6980008623589703	0.6303098126209702	0.44715830730295963	0.7326455208939335	0.7778267985436181	0.470735158747528	0.7321452438498803	0.7837321265148383	0.4527704100085631	0.8158962334145909	0.7546339248525359	0.09096726939936228	0.39905282642775963	0.1207560792471339	0.008000413658965512	0.5168596109899724	0.3890102935353019	0.05738501221037806	0.5304582154080222	0.6779556154325316	0.12165679305654685	0.5622458508316531	0.7648019696529056	0.0859561524780165	0.5546188725844873	0.7930243498221202	0.06491316917091626	0.5577832249972104	0.787691587104359
1	0.0196078431372549	0.31545090914476503	0.7424154128204608	0.5419151114680891	0.2925036637878946	1.007385655310164	0.9139717388837096	0.25304663910993697	1.25717838489911	1.255682808458501	0.2807876124987708	1.1133609604306418	1.4066360660223716	0.33760232889361397	1.160560815808882	1.384053412000395	0.19880583688272047	1.3480645263990443	1.2861246141728775	0.0956958981440477	0.6753688419096261	0.5736234413851022	0.07333068526416775	0.9468115588309429	0.933092093194759	0.06099509454575341	1.1754855555553334	1.276042614142515	0.11861008092786685	1.019514522011864	1.4147883659269131	0.043075326106019024	1.0713094904086633	1.407029328277786	0.04965413685464257	1.2801630949090632	1.2895493680886103	0.26151685722700324	0.3726953275386831	0.023603288869237363	0.30132342386539473	0.20619020867824012	-0.16665226048067128	0.30022431365513935	0.23523871894998138	-0.028952244502956713	0.4148810217693615	0.5138767126328287	0.08918152664748237	0.4275115406133258	0.6601903890430869	0.34271541541561784	0.4686668967218824	0.727819821304823	0.6209551133189668	0.4544614680833455	0.7391775172939795	0.7772009820482524	0.47271923661715	0.7503346170818022	0.7809648381904795	0.45731373637648853	0.8452474406771587	0.7484671488404192	0.09092024154469747	0.39978969499541905	0.120332670948822	0.007808377057039221	0.5151778390849021	0.3907298062521433	0.03981982217586308	0.549283752272032	0.6689306364878367	0.09304615782570752	0.5703392771806155	0.7644358150962631	0.07678667766966861	0.5548883218937348	0.7941226794639645	0.04977831582016939	0.5766823456250305	0.7847376996538145
2	0.0392156862745098	0.31828173378654556	0.7361271753949757	0.5419265318363786	0.29235104025902964	1.0070856184908519	0.9129011761785352	0.2578056392631489	1.2577226306207985	1.2537447464104094	0.2778292264185855	1.1208008074821885	1.4095046610868098	0.3410517408993791	1.1528017485973578	1.384474757156751	0.19924047078355078	1.3563854282126169	1.287796944057758	0.0943093534406229	0.6737853867111379	0.5755157391305866	0.07386873132204516	0.9469607762540213	0.933052481377042	0.060827318937160944	1.1761350219812468	1.277698421871211	0.12194718647372975	1.0197724207787058	1.4156809719758274	0.043187386948464586	1.0712629134711096	1.4069291028255135	0.048614864432605306	1.2864001835480015	1.2902922406956254	0.2615257220566275	0.3726942311089553	0.02359761452569688	0.30133848288191145	0.20621140441898148	-0.1667226964259471	0.30284105388568866	0.2353131374786824	-0.028034143688933953	0.4150070879130034	0.5143639032858983	0.09025841926318054	0.42754636871010854	0.6629126022103039	0.34087381625131463	0.4698577484736863	0.745499411234519	0.6139034976495213	0.4607559969315655	0.7497707922524015	0.775306493348594	0.4748396493077785	0.772499995524213	0.7764132683493437	0.45942729010132527	0.8644899848916459	0.7447525503814001	0.09067349747954156	0.3987762653314023	0.12075837226404411	0.0063778349270613	0.5133486935238385	0.3893957645686078	0.024200165870170428	0.5669029287531202	0.6626769387309341	0.07605944690126076	0.5715877713818263	0.7661492143581148	0.06982120360236063	0.5565902183028574	0.7939364504095279	0.0313925196196483	0.598477964997535	0.7811220523812573
3	0.0588235294117647	0.31871409349959545	0.7395292694492738	0.5397684077903466	0.29218219197612294	1.0073601132421135	0.9119619842066051	0.2604899966919428	1.2557933475852776	1.2538181907598134	0.2775403800243141	1.1231338769539565	1.410541190915415	0.3421213297737586	1.149004201536995	1.385914209117105	0.19940567844905238	1.3574314560333103	1.2886280058148794	0.09293951664388285	0.677899128380627	0.5746460161061335	0.07350168631060272	0.9464439123128666	0.9331820893327123	0.061786389502072867	1.1765949642844713	1.2774728498941765	0.12461810765937123	1.0163413694907297	1.4153967747927723	0.04335201284932921	1.0710424110373664	1.4067059688913126	0.048257319597087046	1.2887029023962282	1.2906989546763834	0.26148410239895986	0.3727541809696859	0.023582524041482526	0.3013747860850306	0.2061948000739802	-0.16675392024212787	0.30469354101023266	0.23368092976646576	-0.02649256067079249	0.41503538307995164	0.5144663921005753	0.09039601435261707	0.42782376434755254	0.6683440984258622	0.33956721716010474	0.4717722387871722	0.7514235930034002	0.6096859193218602	0.4646628649441853	0.7706036542185204	0.7700446056964592	0.4767666766880332	0.7975958506068467	0.7700195570049437	0.4605238365279042	0.8733087482491295	0.7425535102880265	0.0903525455417673	0.3948997315851373	0.12255294635817289	0.0031893460694393866	0.5134933945642175	0.3854581280579428	0.012085045734562457	0.5804908532763708	0.659356935486325	0.07021723700540404	0.5659748702526385	0.7692332180971183	0.06168959519776152	0.5607261999842488	0.7926796203754447	0.012606859576951974	0.6181303361830393	0.7777695099800217
4	0.0784313725490196	0.31831749913595164	0.7442595575196782	0.5381218783525767	0.2920280598409896	1.007347305620061	0.9112621868062324	0.2610177349783928	1.2537257902943502	1.2550949911169318	0.27812352198045825	1.123424372210059	1.4109537305955764	0.3428971077772247	1.1506025189386138	1.387110465413954	0.1995642268994967	1.3559442081077622	1.2880139601099538	0.09230005217814168	0.6820686814988022	0.5733305424656546	0.07283105767843293	0.9456914431800055	0.9333807969295485	0.062496042349718076	1.1765125165024077	1.2759727229909408	0.12559614888882645	1.01397674827871	1.4148840264209919	0.04349189186471803	1.0708362786115548	1.4064586874971	0.04883400123449897	1.29052052140755	1.2905381481476523	0.2612978876544939	0.37299028500048537	0.02349296435217645	0.30143909631696614	0.2061323187380356	-0.1667427199476595	0.3052020026367669	0.23289320903626282	-0.025532773031241424	0.41500055635351285	0.5144247288727626	0.09022585746219902	0.42881947591229796	0.6731440628080851	0.3368858548166757	0.4746970859598285	0.7546006038948028	0.6064529725508921	0.46597742900326966	0.8017541029047197	0.7615174559569399	0.4779414822334911	0.8218648618644184	0.7639221420082194	0.4618916679612707	0.8810027419244021	0.739024223935248	0.0904992834822296	0.38986848668927443	0.12490246057280784	-0.0006622719865002408	0.5164308181095554	0.38171222373739994	0.003926634828825522	0.5876860659056266	0.6574944392464317	0.06783375631178726	0.5598915558087791	0.7709814160470799	0.04581730069343408	0.5689511292826851	0.7910352857220424	-0.00208113067285267	0.6298885917882465	0.7762685193319325
